<svg width="17" height="17" viewBox="0 0 17 17" fill="none" xmlns="http://www.w3.org/2000/svg">
<g id="google-glass-logo 1" clip-path="url(#clip0_3_93)">
<g id="Group">
<g id="glass">
<path id="Vector" d="M9.40018 7.80167V9.81934H14.1619C13.6776 12.6441 11.4178 14.6617 8.59311 14.6617C5.28415 14.6617 2.54012 11.9177 2.54012 8.60874C2.54012 5.29977 5.28415 2.55575 8.59311 2.55575C10.2879 2.55575 11.7407 3.28211 12.7899 4.412L14.2426 2.95928C12.7899 1.50656 10.8529 0.538086 8.59311 0.538086C4.15425 0.538086 0.522461 4.16988 0.522461 8.60874C0.522461 13.0476 4.15425 16.6794 8.59311 16.6794C13.032 16.6794 16.2602 13.0476 16.2602 8.60874V7.80167H9.40018Z" fill="#1A2B39"/>
</g>
</g>
</g>
<defs>
<clipPath id="clip0_3_93">
<rect width="16.1413" height="16.1413" fill="white" transform="translate(0.320557 0.538086)"/>
</clipPath>
</defs>
</svg>
