<svg width="19" height="19" viewBox="0 0 19 19" fill="none" xmlns="http://www.w3.org/2000/svg">
<g id="instagram 1" clip-path="url(#clip0_3_62)">
<path id="Vector" d="M13.3422 0.804443H5.26651C2.63821 0.804443 0.5 2.94265 0.5 5.57095V13.6467C0.5 16.2749 2.63821 18.4131 5.26651 18.4131H13.3423C15.9705 18.4131 18.1087 16.2749 18.1087 13.6467V5.57095C18.1087 2.94265 15.9705 0.804443 13.3422 0.804443V0.804443ZM17.0764 13.6467C17.0764 15.7057 15.4012 17.3808 13.3422 17.3808H5.26651C3.20742 17.3808 1.53229 15.7057 1.53229 13.6467V5.57095C1.53229 3.51187 3.20742 1.83674 5.26651 1.83674H13.3423C15.4012 1.83674 17.0764 3.51187 17.0764 5.57095V13.6467Z" fill="#1A2B39"/>
<path id="Vector_2" d="M9.30424 4.79419C6.64934 4.79419 4.4895 6.95403 4.4895 9.60892C4.4895 12.2638 6.64934 14.4237 9.30424 14.4237C11.9591 14.4237 14.119 12.2638 14.119 9.60892C14.119 6.95403 11.9591 4.79419 9.30424 4.79419ZM9.30424 13.3914C7.21869 13.3914 5.5218 11.6946 5.5218 9.60892C5.5218 7.52338 7.21869 5.82648 9.30424 5.82648C11.3899 5.82648 13.0867 7.52338 13.0867 9.60892C13.0867 11.6946 11.3899 13.3914 9.30424 13.3914Z" fill="#1A2B39"/>
<path id="Vector_3" d="M14.2342 3.08398C13.4497 3.08398 12.8115 3.72225 12.8115 4.50668C12.8115 5.29125 13.4497 5.92951 14.2342 5.92951C15.0188 5.92951 15.6571 5.29125 15.6571 4.50668C15.6571 3.72212 15.0188 3.08398 14.2342 3.08398ZM14.2342 4.89708C14.019 4.89708 13.8438 4.7219 13.8438 4.50668C13.8438 4.29133 14.019 4.11628 14.2342 4.11628C14.4496 4.11628 14.6248 4.29133 14.6248 4.50668C14.6248 4.7219 14.4496 4.89708 14.2342 4.89708Z" fill="#1A2B39"/>
</g>
<defs>
<clipPath id="clip0_3_62">
<rect width="17.6087" height="17.6087" fill="white" transform="translate(0.5 0.804443)"/>
</clipPath>
</defs>
</svg>
