<svg width="84" height="85" viewBox="0 0 84 85" fill="none" xmlns="http://www.w3.org/2000/svg">
<path d="M77.8085 19.6897H75.5296V3.9379C75.5296 3.58976 75.3924 3.25588 75.1482 3.00971C74.904 2.76354 74.5727 2.62524 74.2273 2.62524H23.4402V5.25055H72.9251V10.5012H10.4179V5.25055H20.8358V2.62524H9.11566C8.77029 2.62524 8.43906 2.76354 8.19484 3.00971C7.95063 3.25588 7.81343 3.58976 7.81343 3.9379V19.6897H5.53452C4.7577 19.6906 4.01297 20.0021 3.46368 20.5558C2.91439 21.1095 2.6054 21.8602 2.60449 22.6432V65.3044C2.6054 66.0874 2.91439 66.8381 3.46368 67.3918C4.01297 67.9455 4.7577 68.2569 5.53452 68.2578H32.5559V68.778C32.5569 69.8802 32.2133 70.9547 31.574 71.8489C30.9346 72.7431 30.032 73.4114 28.9943 73.759L27.859 74.1405C26.9511 74.4447 26.1612 75.0295 25.6018 75.8119C25.0423 76.5943 24.7416 77.5345 24.7425 78.499V80.0717C24.7425 80.4198 24.8797 80.7537 25.1239 80.9999C25.3681 81.2461 25.6993 81.3843 26.0447 81.3843H57.2983C57.6437 81.3843 57.9749 81.2461 58.2191 80.9999C58.4633 80.7537 58.6005 80.4198 58.6005 80.0717V78.499C58.6014 77.5345 58.3007 76.5943 57.7412 75.8119C57.1818 75.0295 56.392 74.4447 55.484 74.1405L54.3489 73.759C53.3112 73.4115 52.4085 72.7431 51.7691 71.8489C51.1297 70.9548 50.7861 69.8802 50.7871 68.778V68.2578H61.205V65.6325H5.53452C5.44817 65.6325 5.36537 65.598 5.30431 65.5364C5.24326 65.4749 5.20896 65.3914 5.20896 65.3044V56.444H7.81343V59.0693C7.81343 59.4174 7.95063 59.7513 8.19484 59.9975C8.43906 60.2436 8.77029 60.3819 9.11566 60.3819H74.2273C74.5727 60.3819 74.904 60.2436 75.1482 59.9975C75.3924 59.7513 75.5296 59.4174 75.5296 59.0693V56.444H78.1341V65.3044C78.1341 65.3914 78.0998 65.4749 78.0387 65.5364C77.9776 65.598 77.8948 65.6325 77.8085 65.6325H63.8095V68.2578H77.8085C78.5853 68.2569 79.33 67.9455 79.8793 67.3918C80.4286 66.8381 80.7376 66.0874 80.7385 65.3044V22.6432C80.7376 21.8602 80.4286 21.1095 79.8793 20.5558C79.33 20.0021 78.5853 19.6906 77.8085 19.6897ZM48.1827 68.2578V68.778C48.1811 70.4314 48.6965 72.0432 49.6556 73.3845C50.6147 74.7258 51.9687 75.7284 53.5253 76.2497L54.6603 76.6311C55.0495 76.7614 55.388 77.012 55.6278 77.3474C55.8676 77.6827 55.9964 78.0856 55.9961 78.499V78.759H27.3469V78.499C27.3466 78.0857 27.4754 77.6827 27.7152 77.3474C27.955 77.0121 28.2934 76.7615 28.6825 76.6311L29.8179 76.2497C31.3745 75.7283 32.7284 74.7257 33.6875 73.3844C34.6465 72.0431 35.1619 70.4313 35.1603 68.778V68.2578H48.1827ZM5.20896 53.8187V22.6432C5.20896 22.5561 5.24326 22.4727 5.30431 22.4111C5.36537 22.3496 5.44817 22.315 5.53452 22.315H7.81343V53.8187H5.20896ZM10.4179 57.7566V13.1265H72.9251V57.7566H10.4179ZM75.5296 53.8187V22.315H77.8085C77.8948 22.315 77.9776 22.3496 78.0387 22.4111C78.0998 22.4727 78.1341 22.5561 78.1341 22.6432V53.8187H75.5296Z" fill="#00A5C7"/>
<path d="M67.7161 6.56323H70.3205V9.18853H67.7161V6.56323Z" fill="#00A5C7"/>
<path d="M23.4402 6.56323H26.0447V9.18853H23.4402V6.56323Z" fill="#00A5C7"/>
<path d="M13.0225 6.56323H15.6269V9.18853H13.0225V6.56323Z" fill="#00A5C7"/>
<path d="M18.2312 6.56323H20.8357V9.18853H18.2312V6.56323Z" fill="#00A5C7"/>
<path d="M27.3469 36.7542H33.8581V39.3795H27.3469V36.7542Z" fill="#00A5C7"/>
<path d="M36.4626 36.7542H45.5783V39.3795H36.4626V36.7542Z" fill="#00A5C7"/>
<path d="M27.3469 42.0049H31.2536V44.6302H27.3469V42.0049Z" fill="#00A5C7"/>
<path d="M33.8582 42.0049H45.5783V44.6302H33.8582V42.0049Z" fill="#00A5C7"/>
<path d="M27.3469 47.2554H42.9737V49.8807H27.3469V47.2554Z" fill="#00A5C7"/>
<path d="M27.3469 19.6897H29.9514V24.9403H27.3469V19.6897Z" fill="#00A5C7"/>
<path d="M63.8094 28.8782C63.8094 27.8598 63.574 26.8554 63.1219 25.9446C62.6698 25.0338 62.0135 24.2416 61.205 23.6309V20.346C61.2036 19.1279 60.7229 17.9602 59.8685 17.0989C59.014 16.2376 57.8555 15.7531 56.6471 15.7517H26.6958C25.4874 15.7531 24.3289 16.2376 23.4744 17.0989C22.62 17.9602 22.1393 19.1279 22.1379 20.346V24.2839C22.1393 25.502 22.62 26.6698 23.4744 27.5311C24.3289 28.3924 25.4874 28.8768 26.6958 28.8782H50.7871C50.786 29.7818 50.9712 30.6758 51.3308 31.5035H23.4402C23.0948 31.5035 22.7636 31.6418 22.5194 31.888C22.2751 32.1342 22.1379 32.468 22.1379 32.8162V53.8186C22.1379 54.1668 22.2751 54.5006 22.5194 54.7468C22.7636 54.993 23.0948 55.1313 23.4402 55.1313H59.9027C60.2481 55.1313 60.5793 54.993 60.8235 54.7468C61.0678 54.5006 61.205 54.1668 61.205 53.8186V34.1256C61.4648 33.9283 61.7096 33.7119 61.9375 33.4779L67.0453 36.5671L68.3853 34.3159L63.3589 31.2758C63.6572 30.5122 63.81 29.6989 63.8094 28.8782ZM61.205 28.8782C61.205 29.6571 60.9758 30.4184 60.5466 31.066C60.1173 31.7136 59.5071 32.2184 58.7933 32.5164C58.0794 32.8145 57.2939 32.8925 56.5361 32.7405C55.7783 32.5886 55.0822 32.2135 54.5358 31.6628C53.9894 31.1121 53.6174 30.4104 53.4666 29.6465C53.3159 28.8826 53.3932 28.0908 53.6889 27.3712C53.9846 26.6517 54.4854 26.0366 55.1278 25.6039C55.7703 25.1712 56.5256 24.9403 57.2983 24.9403C58.334 24.9415 59.327 25.3568 60.0594 26.095C60.7918 26.8333 61.2038 27.8342 61.205 28.8782ZM26.6958 26.2529C26.1779 26.2524 25.6814 26.0447 25.3152 25.6756C24.9489 25.3065 24.743 24.806 24.7424 24.2839V20.346C24.743 19.824 24.9489 19.3235 25.3152 18.9543C25.6814 18.5852 26.1779 18.3776 26.6958 18.377H56.6471C57.165 18.3776 57.6615 18.5852 58.0278 18.9543C58.394 19.3235 58.5999 19.824 58.6005 20.346V22.4462C57.1396 22.1466 55.6209 22.3611 54.2979 23.0538C52.9748 23.7466 51.9276 24.8758 51.3308 26.2529H26.6958ZM58.6005 52.506H24.7424V34.1288H53.3916V34.1256C54.1274 34.6829 54.9721 35.0767 55.87 35.2808C56.7679 35.4849 57.6986 35.4947 58.6005 35.3096V52.506Z" fill="#00A5C7"/>
</svg>
