<svg width="16" height="16" viewBox="0 0 16 16" fill="none" xmlns="http://www.w3.org/2000/svg">
<g id="linkedin 1" clip-path="url(#clip0_3_68)">
<g id="Group">
<g id="Group_2">
<path id="Vector" d="M3.80417 5.35303H0.358643V15.9458H3.80417V5.35303Z" fill="#1A2B39"/>
</g>
</g>
<g id="Group_3">
<g id="Group_4">
<path id="Vector_2" d="M13.1894 5.47725C13.1528 5.4657 13.1181 5.45318 13.0796 5.44258C13.0334 5.43199 12.9872 5.42332 12.94 5.41562C12.757 5.37903 12.5567 5.35303 12.3218 5.35303C10.313 5.35303 9.03897 6.81386 8.61911 7.37817V5.35303H5.17358V15.9458H8.61911V10.1679C8.61911 10.1679 11.223 6.54134 12.3218 9.20493C12.3218 11.5825 12.3218 15.9458 12.3218 15.9458H15.7663V8.79759C15.7663 7.19713 14.6695 5.8634 13.1894 5.47725Z" fill="#1A2B39"/>
</g>
</g>
<g id="Group_5">
<g id="Group_6">
<path id="Vector_3" d="M2.04385 3.9085C2.97456 3.9085 3.72906 3.15401 3.72906 2.22329C3.72906 1.29258 2.97456 0.538086 2.04385 0.538086C1.11314 0.538086 0.358643 1.29258 0.358643 2.22329C0.358643 3.15401 1.11314 3.9085 2.04385 3.9085Z" fill="#1A2B39"/>
</g>
</g>
</g>
<defs>
<clipPath id="clip0_3_68">
<rect width="15.4076" height="15.4076" fill="white" transform="translate(0.358643 0.538086)"/>
</clipPath>
</defs>
</svg>
