<svg width="18" height="18" viewBox="0 0 18 18" fill="none" xmlns="http://www.w3.org/2000/svg">
<g id="twitter 1" clip-path="url(#clip0_18_368)">
<path id="Vector" d="M7.22497 16.1647C6.49524 16.1647 5.74414 16.1056 4.98853 15.9872C3.65769 15.7784 2.3105 15.0822 1.92928 14.8738L0.929443 14.3271L2.01194 13.9712C3.19524 13.5821 3.91505 13.3407 4.8061 12.9627C3.91389 12.5306 3.22626 11.7534 2.89526 10.7486L2.64343 9.98415L2.84994 10.0157C2.65412 9.81832 2.4995 9.61799 2.37963 9.43582C1.95336 8.78835 1.72767 7.99721 1.77569 7.31923L1.82307 6.65194L2.22256 6.80669C2.05404 6.48843 1.93224 6.14854 1.86066 5.7923C1.68621 4.92352 1.83221 4.00054 2.27187 3.19344L2.61987 2.5546L3.08529 3.11361C4.55724 4.88181 6.4216 5.93071 8.63435 6.23776C8.54397 5.61476 8.61169 5.01352 8.83584 4.47459C9.0968 3.84708 9.56106 3.31497 10.178 2.93569C10.8632 2.51456 11.6941 2.3105 12.5177 2.36109C13.3915 2.41478 14.1848 2.74218 14.8149 3.30853C15.1226 3.22858 15.3493 3.14322 15.6557 3.02787C15.8401 2.95847 16.0492 2.87968 16.3108 2.78956L17.2748 2.45739L16.6462 4.25289C16.6876 4.24941 16.7304 4.24645 16.7751 4.24452L17.8045 4.19791L17.1961 5.02948C17.1612 5.07712 17.1523 5.09064 17.1399 5.10931C17.0909 5.18321 17.0298 5.27513 16.1947 6.39033C15.9856 6.66958 15.8812 7.03329 15.9006 7.41463C15.9746 8.8638 15.7968 10.1749 15.3719 11.3115C14.9699 12.3868 14.347 13.3094 13.5208 14.0537C12.4983 14.9745 11.1945 15.6049 9.64539 15.9273C8.88553 16.0854 8.06954 16.1647 7.22497 16.1647Z" fill="#1A2B39"/>
</g>
<defs>
<clipPath id="clip0_18_368">
<rect width="16.875" height="16.875" fill="white" transform="translate(0.929443 0.804443)"/>
</clipPath>
</defs>
</svg>
